<svg xmlns="http://www.w3.org/2000/svg" viewBox="0 0 1600 1100" role="img" aria-label="Карта Саэрский Союз">
<style>text{font-family:DejaVu Sans, sans-serif;fill:#40382c}.small{font-size:9px}.mid{font-size:12px}.big{font-size:15px;font-weight:bold}.river{fill:none;stroke:#4c7c97;stroke-width:3}.road{stroke:#92704a;stroke-width:1.2}.mroad{stroke:#735435;stroke-width:2}.mount{fill:none;stroke:#766956;stroke-width:3}.border{fill:#eee5c9;stroke:#41372a;stroke-width:2}</style>
<polygon class="border" points="90.8,854.5 232.9,980.2 496.8,931.9 679.6,1009.2 984.1,883.6 1045.0,641.8 963.8,332.5 781.1,110.1 496.8,177.8 253.2,90.8 100.9,380.8 90.8,854.5"/>
<polyline class="mount" points="151.7,332.5 334.4,216.4 517.1,303.5 689.7,235.8 902.9,351.8"/>
<polyline class="river" points="232.9,216.4 344.5,371.1 486.7,525.8 638.9,661.2 791.2,873.9"/>
<polyline class="river" points="791.2,274.5 679.6,448.5 486.7,525.8"/>
<line class="mroad" x1="507.0" y1="564.5" x2="534.2" y2="574.1"/>
<line class="mroad" x1="507.0" y1="564.5" x2="498.8" y2="535.8"/>
<line class="mroad" x1="507.0" y1="564.5" x2="513.2" y2="519.5"/>
<line class="mroad" x1="507.0" y1="564.5" x2="492.8" y2="511.8"/>
<line class="mroad" x1="507.0" y1="564.5" x2="561.6" y2="585.7"/>
<line class="mroad" x1="507.0" y1="564.5" x2="635.9" y2="660.1"/>
<line class="mroad" x1="507.0" y1="564.5" x2="700.3" y2="746.1"/>
<line class="mroad" x1="700.3" y1="746.1" x2="706.0" y2="722.0"/>
<line class="mroad" x1="700.3" y1="746.1" x2="715.6" y2="768.1"/>
<line class="mroad" x1="700.3" y1="746.1" x2="677.2" y2="713.5"/>
<line class="mroad" x1="700.3" y1="746.1" x2="653.7" y2="723.3"/>
<line class="mroad" x1="700.3" y1="746.1" x2="751.7" y2="809.1"/>
<line class="mroad" x1="700.3" y1="746.1" x2="746.2" y2="783.1"/>
<line class="mroad" x1="700.3" y1="746.1" x2="635.9" y2="660.1"/>
<line class="mroad" x1="635.9" y1="660.1" x2="631.5" y2="631.2"/>
<line class="mroad" x1="635.9" y1="660.1" x2="610.2" y2="639.8"/>
<line class="mroad" x1="635.9" y1="660.1" x2="654.5" y2="688.1"/>
<line class="mroad" x1="635.9" y1="660.1" x2="653.7" y2="723.3"/>
<line class="road" x1="532.9" y1="507.5" x2="555.0" y2="506.2"/>
<line class="road" x1="532.9" y1="507.5" x2="513.2" y2="519.5"/>
<line class="road" x1="532.9" y1="507.5" x2="492.8" y2="511.8"/>
<line class="road" x1="532.9" y1="507.5" x2="498.8" y2="535.8"/>
<line class="road" x1="532.9" y1="507.5" x2="569.1" y2="476.1"/>
<line class="road" x1="532.9" y1="507.5" x2="597.6" y2="487.4"/>
<line class="road" x1="247.6" y1="229.9" x2="228.3" y2="221.9"/>
<line class="road" x1="247.6" y1="229.9" x2="233.1" y2="198.4"/>
<line class="road" x1="247.6" y1="229.9" x2="271.6" y2="262.5"/>
<line class="road" x1="247.6" y1="229.9" x2="325.4" y2="284.8"/>
<line class="road" x1="339.8" y1="361.4" x2="322.9" y2="348.2"/>
<line class="road" x1="339.8" y1="361.4" x2="361.2" y2="362.3"/>
<line class="road" x1="339.8" y1="361.4" x2="357.4" y2="402.1"/>
<line class="road" x1="339.8" y1="361.4" x2="300.1" y2="311.0"/>
<line class="road" x1="339.8" y1="361.4" x2="325.4" y2="284.8"/>
<line class="road" x1="751.7" y1="809.1" x2="746.2" y2="783.1"/>
<line class="road" x1="751.7" y1="809.1" x2="763.8" y2="847.6"/>
<line class="road" x1="751.7" y1="809.1" x2="715.6" y2="768.1"/>
<line class="road" x1="751.7" y1="809.1" x2="796.0" y2="882.3"/>
<line class="road" x1="687.0" y1="451.4" x2="662.6" y2="449.8"/>
<line class="road" x1="687.0" y1="451.4" x2="684.0" y2="417.0"/>
<line class="road" x1="687.0" y1="451.4" x2="718.5" y2="393.9"/>
<line class="road" x1="687.0" y1="451.4" x2="626.8" y2="490.3"/>
<line class="road" x1="788.5" y1="273.8" x2="761.9" y2="287.5"/>
<line class="road" x1="788.5" y1="273.8" x2="798.4" y2="310.9"/>
<line class="road" x1="788.5" y1="273.8" x2="777.7" y2="314.7"/>
<line class="road" x1="788.5" y1="273.8" x2="764.2" y2="336.4"/>
<line class="road" x1="796.0" y1="882.3" x2="763.8" y2="847.6"/>
<line class="road" x1="796.0" y1="882.3" x2="746.2" y2="783.1"/>
<line class="road" x1="796.0" y1="882.3" x2="715.6" y2="768.1"/>
<line class="road" x1="777.7" y1="314.7" x2="798.4" y2="310.9"/>
<line class="road" x1="777.7" y1="314.7" x2="764.2" y2="336.4"/>
<line class="road" x1="777.7" y1="314.7" x2="761.9" y2="287.5"/>
<line class="road" x1="777.7" y1="314.7" x2="740.9" y2="325.1"/>
<line class="road" x1="777.7" y1="314.7" x2="749.5" y2="359.0"/>
<line class="road" x1="718.5" y1="393.9" x2="684.0" y2="417.0"/>
<line class="road" x1="718.5" y1="393.9" x2="749.5" y2="359.0"/>
<line class="road" x1="718.5" y1="393.9" x2="740.9" y2="325.1"/>
<line class="road" x1="561.6" y1="585.7" x2="575.1" y2="604.4"/>
<line class="road" x1="561.6" y1="585.7" x2="534.2" y2="574.1"/>
<line class="road" x1="561.6" y1="585.7" x2="610.2" y2="639.8"/>
<line class="road" x1="412.4" y1="431.1" x2="406.6" y2="452.6"/>
<line class="road" x1="412.4" y1="431.1" x2="395.3" y2="412.2"/>
<line class="road" x1="412.4" y1="431.1" x2="357.4" y2="402.1"/>
<line class="road" x1="412.4" y1="431.1" x2="462.4" y2="495.2"/>
<line class="road" x1="534.2" y1="574.1" x2="575.1" y2="604.4"/>
<line class="road" x1="534.2" y1="574.1" x2="498.8" y2="535.8"/>
<line class="road" x1="271.6" y1="262.5" x2="300.1" y2="311.0"/>
<line class="road" x1="271.6" y1="262.5" x2="325.4" y2="284.8"/>
<line class="road" x1="271.6" y1="262.5" x2="228.3" y2="221.9"/>
<line class="road" x1="271.6" y1="262.5" x2="233.1" y2="198.4"/>
<line class="road" x1="715.6" y1="768.1" x2="746.2" y2="783.1"/>
<line class="road" x1="715.6" y1="768.1" x2="706.0" y2="722.0"/>
<line class="road" x1="715.6" y1="768.1" x2="763.8" y2="847.6"/>
<line class="road" x1="555.0" y1="506.2" x2="569.1" y2="476.1"/>
<line class="road" x1="555.0" y1="506.2" x2="513.2" y2="519.5"/>
<line class="road" x1="555.0" y1="506.2" x2="597.6" y2="487.4"/>
<line class="road" x1="498.8" y1="535.8" x2="513.2" y2="519.5"/>
<line class="road" x1="498.8" y1="535.8" x2="492.8" y2="511.8"/>
<line class="road" x1="498.8" y1="535.8" x2="462.4" y2="495.2"/>
<line class="road" x1="462.4" y1="495.2" x2="492.8" y2="511.8"/>
<line class="road" x1="462.4" y1="495.2" x2="513.2" y2="519.5"/>
<line class="road" x1="462.4" y1="495.2" x2="406.6" y2="452.6"/>
<line class="road" x1="764.2" y1="336.4" x2="740.9" y2="325.1"/>
<line class="road" x1="764.2" y1="336.4" x2="749.5" y2="359.0"/>
<line class="road" x1="764.2" y1="336.4" x2="798.4" y2="310.9"/>
<line class="road" x1="610.2" y1="639.8" x2="631.5" y2="631.2"/>
<line class="road" x1="610.2" y1="639.8" x2="575.1" y2="604.4"/>
<line class="road" x1="610.2" y1="639.8" x2="654.5" y2="688.1"/>
<line class="road" x1="228.3" y1="221.9" x2="233.1" y2="198.4"/>
<line class="road" x1="228.3" y1="221.9" x2="300.1" y2="311.0"/>
<line class="road" x1="322.9" y1="348.2" x2="361.2" y2="362.3"/>
<line class="road" x1="322.9" y1="348.2" x2="300.1" y2="311.0"/>
<line class="road" x1="322.9" y1="348.2" x2="325.4" y2="284.8"/>
<line class="road" x1="357.4" y1="402.1" x2="395.3" y2="412.2"/>
<line class="road" x1="357.4" y1="402.1" x2="361.2" y2="362.3"/>
<line class="road" x1="357.4" y1="402.1" x2="406.6" y2="452.6"/>
<line class="road" x1="798.4" y1="310.9" x2="761.9" y2="287.5"/>
<line class="road" x1="677.2" y1="713.5" x2="653.7" y2="723.3"/>
<line class="road" x1="677.2" y1="713.5" x2="706.0" y2="722.0"/>
<line class="road" x1="677.2" y1="713.5" x2="654.5" y2="688.1"/>
<line class="road" x1="492.8" y1="511.8" x2="513.2" y2="519.5"/>
<line class="road" x1="395.3" y1="412.2" x2="406.6" y2="452.6"/>
<line class="road" x1="395.3" y1="412.2" x2="361.2" y2="362.3"/>
<line class="road" x1="631.5" y1="631.2" x2="654.5" y2="688.1"/>
<line class="road" x1="631.5" y1="631.2" x2="575.1" y2="604.4"/>
<line class="road" x1="654.5" y1="688.1" x2="653.7" y2="723.3"/>
<line class="road" x1="740.9" y1="325.1" x2="749.5" y2="359.0"/>
<line class="road" x1="740.9" y1="325.1" x2="761.9" y2="287.5"/>
<line class="road" x1="763.8" y1="847.6" x2="746.2" y2="783.1"/>
<line class="road" x1="233.1" y1="198.4" x2="325.4" y2="284.8"/>
<line class="road" x1="325.4" y1="284.8" x2="300.1" y2="311.0"/>
<line class="road" x1="662.6" y1="449.8" x2="684.0" y2="417.0"/>
<line class="road" x1="662.6" y1="449.8" x2="626.8" y2="490.3"/>
<line class="road" x1="662.6" y1="449.8" x2="597.6" y2="487.4"/>
<line class="road" x1="706.0" y1="722.0" x2="653.7" y2="723.3"/>
<line class="road" x1="626.8" y1="490.3" x2="597.6" y2="487.4"/>
<line class="road" x1="626.8" y1="490.3" x2="569.1" y2="476.1"/>
<line class="road" x1="569.1" y1="476.1" x2="597.6" y2="487.4"/>
<line class="road" x1="684.0" y1="417.0" x2="749.5" y2="359.0"/>
<circle cx="507.0" cy="564.5" r="5" fill="#2d2a25"/>
<text class="big" x="513.0" y="560.5">Эйран</text>
<circle cx="700.3" cy="746.1" r="4" fill="#2d2a25"/>
<text class="mid" x="706.3" y="742.1">Эйор</text>
<circle cx="635.9" cy="660.1" r="4" fill="#2d2a25"/>
<text class="mid" x="641.9" y="656.1">Серрел</text>
<circle cx="532.9" cy="507.5" r="3" fill="#2d2a25"/>
<text class="mid" x="538.9" y="503.5">Мейай</text>
<circle cx="247.6" cy="229.9" r="3" fill="#2d2a25"/>
<text class="mid" x="253.6" y="225.9">Найрел</text>
<circle cx="339.8" cy="361.4" r="3" fill="#2d2a25"/>
<text class="mid" x="345.8" y="357.4">Лорар</text>
<circle cx="751.7" cy="809.1" r="3" fill="#2d2a25"/>
<text class="mid" x="757.7" y="805.1">Тейаэль</text>
<circle cx="687.0" cy="451.4" r="3" fill="#2d2a25"/>
<text class="mid" x="693.0" y="447.4">Найран</text>
<circle cx="788.5" cy="273.8" r="3" fill="#2d2a25"/>
<text class="mid" x="794.5" y="269.8">Эрис</text>
<circle cx="796.0" cy="882.3" r="3" fill="#2d2a25"/>
<text class="mid" x="802.0" y="878.3">Райаэль</text>
<circle cx="777.7" cy="314.7" r="3" fill="#2d2a25"/>
<text class="mid" x="783.7" y="310.7">Найэль</text>
<circle cx="718.5" cy="393.9" r="3" fill="#2d2a25"/>
<text class="mid" x="724.5" y="389.9">Эрас</text>
<circle cx="561.6" cy="585.7" r="3" fill="#2d2a25"/>
<text class="mid" x="567.6" y="581.7">Дайас</text>
<circle cx="412.4" cy="431.1" r="1.8" fill="#2d2a25"/>
<text class="small" x="418.4" y="427.1">14</text>
<circle cx="534.2" cy="574.1" r="1.8" fill="#2d2a25"/>
<text class="small" x="540.2" y="570.1">15</text>
<circle cx="271.6" cy="262.5" r="1.8" fill="#2d2a25"/>
<text class="small" x="277.6" y="258.5">16</text>
<circle cx="715.6" cy="768.1" r="1.8" fill="#2d2a25"/>
<text class="small" x="721.6" y="764.1">17</text>
<circle cx="555.0" cy="506.2" r="1.8" fill="#2d2a25"/>
<text class="small" x="561.0" y="502.2">18</text>
<circle cx="498.8" cy="535.8" r="1.8" fill="#2d2a25"/>
<text class="small" x="504.8" y="531.8">19</text>
<circle cx="462.4" cy="495.2" r="1.8" fill="#2d2a25"/>
<text class="small" x="468.4" y="491.2">20</text>
<circle cx="764.2" cy="336.4" r="1.8" fill="#2d2a25"/>
<text class="small" x="770.2" y="332.4">21</text>
<circle cx="610.2" cy="639.8" r="1.8" fill="#2d2a25"/>
<text class="small" x="616.2" y="635.8">22</text>
<circle cx="228.3" cy="221.9" r="1.8" fill="#2d2a25"/>
<text class="small" x="234.3" y="217.9">23</text>
<circle cx="322.9" cy="348.2" r="1.8" fill="#2d2a25"/>
<text class="small" x="328.9" y="344.2">24</text>
<circle cx="357.4" cy="402.1" r="1.8" fill="#2d2a25"/>
<text class="small" x="363.4" y="398.1">25</text>
<circle cx="798.4" cy="310.9" r="1.8" fill="#2d2a25"/>
<text class="small" x="804.4" y="306.9">26</text>
<circle cx="677.2" cy="713.5" r="1.8" fill="#2d2a25"/>
<text class="small" x="683.2" y="709.5">27</text>
<circle cx="492.8" cy="511.8" r="1.8" fill="#2d2a25"/>
<text class="small" x="498.8" y="507.8">28</text>
<circle cx="395.3" cy="412.2" r="1.8" fill="#2d2a25"/>
<text class="small" x="401.3" y="408.2">29</text>
<circle cx="631.5" cy="631.2" r="1.8" fill="#2d2a25"/>
<text class="small" x="637.5" y="627.2">30</text>
<circle cx="654.5" cy="688.1" r="1.8" fill="#2d2a25"/>
<text class="small" x="660.5" y="684.1">31</text>
<circle cx="513.2" cy="519.5" r="1.8" fill="#2d2a25"/>
<text class="small" x="519.2" y="515.5">32</text>
<circle cx="740.9" cy="325.1" r="1.8" fill="#2d2a25"/>
<text class="small" x="746.9" y="321.1">33</text>
<circle cx="763.8" cy="847.6" r="1.8" fill="#2d2a25"/>
<text class="small" x="769.8" y="843.6">34</text>
<circle cx="361.2" cy="362.3" r="1.8" fill="#2d2a25"/>
<text class="small" x="367.2" y="358.3">35</text>
<circle cx="233.1" cy="198.4" r="1.8" fill="#2d2a25"/>
<text class="small" x="239.1" y="194.4">36</text>
<circle cx="325.4" cy="284.8" r="1.8" fill="#2d2a25"/>
<text class="small" x="331.4" y="280.8">37</text>
<circle cx="300.1" cy="311.0" r="1.8" fill="#2d2a25"/>
<text class="small" x="306.1" y="307.0">38</text>
<circle cx="662.6" cy="449.8" r="1.8" fill="#2d2a25"/>
<text class="small" x="668.6" y="445.8">39</text>
<circle cx="575.1" cy="604.4" r="1.8" fill="#2d2a25"/>
<text class="small" x="581.1" y="600.4">40</text>
<circle cx="706.0" cy="722.0" r="1.8" fill="#2d2a25"/>
<text class="small" x="712.0" y="718.0">41</text>
<circle cx="746.2" cy="783.1" r="1.8" fill="#2d2a25"/>
<text class="small" x="752.2" y="779.1">42</text>
<circle cx="653.7" cy="723.3" r="1.8" fill="#2d2a25"/>
<text class="small" x="659.7" y="719.3">43</text>
<circle cx="406.6" cy="452.6" r="1.8" fill="#2d2a25"/>
<text class="small" x="412.6" y="448.6">44</text>
<circle cx="626.8" cy="490.3" r="1.8" fill="#2d2a25"/>
<text class="small" x="632.8" y="486.3">45</text>
<circle cx="761.9" cy="287.5" r="1.8" fill="#2d2a25"/>
<text class="small" x="767.9" y="283.5">46</text>
<circle cx="569.1" cy="476.1" r="1.8" fill="#2d2a25"/>
<text class="small" x="575.1" y="472.1">47</text>
<circle cx="597.6" cy="487.4" r="1.8" fill="#2d2a25"/>
<text class="small" x="603.6" y="483.4">48</text>
<circle cx="684.0" cy="417.0" r="1.8" fill="#2d2a25"/>
<text class="small" x="690.0" y="413.0">49</text>
<circle cx="749.5" cy="359.0" r="1.8" fill="#2d2a25"/>
<text class="small" x="755.5" y="355.0">50</text>
<text class="big" x="1260" y="70">Саэрский Союз</text>
<text class="mid" x="1260" y="95">Площадь: 640 000 км²</text>
<text class="small" x="1260" y="130">1. Эйран — 114 000</text>
<text class="small" x="1260" y="141">2. Эйор — 85 081</text>
<text class="small" x="1260" y="152">3. Серрел — 50 082</text>
<text class="small" x="1260" y="163">4. Мейай — 49 498</text>
<text class="small" x="1260" y="174">5. Найрел — 44 514</text>
<text class="small" x="1260" y="185">6. Лорар — 38 794</text>
<text class="small" x="1260" y="196">7. Тейаэль — 29 549</text>
<text class="small" x="1260" y="207">8. Найран — 25 036</text>
<text class="small" x="1260" y="218">9. Эрис — 21 396</text>
<text class="small" x="1260" y="229">10. Райаэль — 20 179</text>
<text class="small" x="1260" y="240">11. Найэль — 18 068</text>
<text class="small" x="1260" y="251">12. Эрас — 16 878</text>
<text class="small" x="1260" y="262">13. Дайас — 16 252</text>
<text class="small" x="1260" y="273">14. Серис — 14 439</text>
<text class="small" x="1260" y="284">15. Нирар — 13 642</text>
<text class="small" x="1260" y="295">16. Эйас — 12 140</text>
<text class="small" x="1260" y="306">17. Вейас — 11 866</text>
<text class="small" x="1260" y="317">18. Нирран — 10 347</text>
<text class="small" x="1260" y="328">19. Саэль — 10 305</text>
<text class="small" x="1260" y="339">20. Ваэей — 10 249</text>
<text class="small" x="1260" y="350">21. Ваэор — 9 800</text>
<text class="small" x="1260" y="361">22. Райар — 9 567</text>
<text class="small" x="1260" y="372">23. Лорира — 8 899</text>
<text class="small" x="1260" y="383">24. Ваэин — 8 846</text>
<text class="small" x="1260" y="394">25. Тораэль — 8 465</text>
<text class="small" x="1260" y="405">26. Хейир — 8 331</text>
<text class="small" x="1260" y="416">27. Мейен — 8 087</text>
<text class="small" x="1260" y="427">28. Торис — 7 952</text>
<text class="small" x="1260" y="438">29. Нирира — 7 371</text>
<text class="small" x="1260" y="449">30. Мейир — 7 245</text>
<text class="small" x="1260" y="460">31. Райрел — 7 182</text>
<text class="small" x="1260" y="471">32. Ваэас — 6 815</text>
<text class="small" x="1260" y="482">33. Хейей — 6 698</text>
<text class="small" x="1260" y="493">34. Мейэль — 6 453</text>
<text class="small" x="1260" y="504">35. Найар — 6 319</text>
<text class="small" x="1260" y="515">36. Нирэль — 6 234</text>
<text class="small" x="1260" y="526">37. Нираэль — 6 059</text>
<text class="small" x="1260" y="537">38. Ваэрел — 6 029</text>
<text class="small" x="1260" y="548">39. Вейран — 5 923</text>
<text class="small" x="1260" y="559">40. Дайира — 4 190</text>
<text class="small" x="1260" y="570">41. Найен — 3 405</text>
<text class="small" x="1260" y="581">42. Эйис — 3 398</text>
<text class="small" x="1260" y="592">43. Эйэль — 3 351</text>
<text class="small" x="1260" y="603">44. Кирира — 3 066</text>
<text class="small" x="1260" y="614">45. Дайей — 3 000</text>
<text class="small" x="1260" y="625">46. Киррел — 3 000</text>
<text class="small" x="1260" y="636">47. Эрор — 3 000</text>
<text class="small" x="1260" y="647">48. Серар — 3 000</text>
<text class="small" x="1260" y="658">49. Эйар — 3 000</text>
<text class="small" x="1260" y="669">50. Вейор — 3 000</text>
</svg>